<svg id="Base" xmlns="http://www.w3.org/2000/svg" xmlns:xlink="http://www.w3.org/1999/xlink" viewBox="0 0 801.5 803.07"><defs><style>.cls-1{fill:url(#未命名的渐变_7);}.cls-2{fill:url(#未命名的渐变_7-2);}.cls-3{opacity:0.9;fill:url(#未命名的渐变_16);}.cls-4{stroke:gray;fill:url(#未命名的渐变_16-2);}.cls-4,.cls-5,.cls-6,.cls-7{stroke-miterlimit:10;stroke-width:0.25px;}.cls-5,.cls-6,.cls-7{stroke:#999;}.cls-5{fill:url(#未命名的渐变_19);}.cls-6{fill:url(#未命名的渐变_18);}.cls-7{fill:url(#未命名的渐变_16-3);}</style><linearGradient id="未命名的渐变_7" x1="-14.44" y1="812.87" x2="798.14" y2="5.33" gradientUnits="userSpaceOnUse"><stop offset="0" stop-color="#744dad" stop-opacity="0.8"/><stop offset="0.22" stop-color="#6158bb" stop-opacity="0.7"/><stop offset="0.63" stop-color="#2f75de" stop-opacity="0.44"/><stop offset="0.97" stop-color="#0090ff" stop-opacity="0.2"/></linearGradient><linearGradient id="未命名的渐变_7-2" x1="38.32" y1="844.81" x2="344.95" y2="540.08" xlink:href="#未命名的渐变_7"/><linearGradient id="未命名的渐变_16" x1="955.63" y1="369.51" x2="61.86" y2="852.07" gradientUnits="userSpaceOnUse"><stop offset="0.18" stop-color="#7accec" stop-opacity="0.2"/><stop offset="0.9" stop-color="#574297" stop-opacity="0.4"/></linearGradient><linearGradient id="未命名的渐变_16-2" x1="358.87" y1="53.78" x2="200.81" y2="422.29" gradientTransform="translate(567 459) rotate(180)" xlink:href="#未命名的渐变_16"/><linearGradient id="未命名的渐变_19" x1="382.08" y1="27.03" x2="180.94" y2="472.65" gradientUnits="userSpaceOnUse"><stop offset="0.17" stop-color="#7accec" stop-opacity="0.2"/><stop offset="0.9" stop-color="#574297" stop-opacity="0.4"/></linearGradient><linearGradient id="未命名的渐变_18" x1="584.85" y1="44.25" x2="385.31" y2="285.72" gradientUnits="userSpaceOnUse"><stop offset="0.18" stop-color="#7accec" stop-opacity="0.2"/><stop offset="0.61" stop-color="#6b90c7" stop-opacity="0.29"/><stop offset="0.92" stop-color="#574297" stop-opacity="0.4"/></linearGradient><linearGradient id="未命名的渐变_16-3" x1="465.92" y1="189.66" x2="241.27" y2="389.61" xlink:href="#未命名的渐变_16"/></defs><path class="cls-1" d="M800.5.5v801H-.5V.5Z" transform="translate(1 -0.5)"/><polygon class="cls-2" points="609 803.07 1 356.5 1 797.67 609 803.07"/><polygon class="cls-3" points="801 106.5 0 799.5 801 799.5 801 106.5"/><rect class="cls-4" x="99" y="114" width="369" height="231" transform="translate(568 458.5) rotate(-180)"/><rect class="cls-5" x="169" y="47.5" width="233" height="387"/><rect class="cls-6" x="332" y="86.5" width="302" height="162"/><rect class="cls-7" x="271" y="180.5" width="261" height="133"/></svg>